# Blender 5.0.0
# www.blender.org
mtllib HealCircle.mtl
o HealCircle
v -9.999911 -0.000385 0.000466
v 0.000089 -0.000385 0.000466
v -9.396842 -0.000385 3.420666
v -7.660352 -0.000385 6.428336
v -4.999911 -0.000385 8.660715
v -1.736392 -0.000385 9.848536
v 1.736569 -0.000385 9.848536
v 5.000089 -0.000385 8.660715
v 7.660539 -0.000385 6.428336
v 9.397019 -0.000385 3.420666
v 10.000089 -0.000385 0.000466
v 9.397019 -0.000386 -3.419734
v 7.660539 -0.000386 -6.427413
v 5.000089 -0.000386 -8.659794
v 1.736569 -0.000386 -9.847614
v -1.736392 -0.000386 -9.847614
v -4.999911 -0.000386 -8.659794
v -7.660352 -0.000386 -6.427413
v -9.396842 -0.000386 -3.419742
vn -0.0000 1.0000 -0.0000
vt 9.396926 3.420201
vt 0.000000 0.000000
vt 10.000000 0.000000
vt 7.660444 6.427876
vt 5.000000 8.660254
vt 1.736482 9.848078
vt -1.736482 9.848078
vt -5.000000 8.660254
vt -7.660444 6.427876
vt -9.396926 3.420202
vt -10.000000 -0.000001
vt -9.396926 -3.420202
vt -7.660445 -6.427876
vt -4.999999 -8.660254
vt -1.736481 -9.848078
vt 1.736481 -9.848078
vt 4.999999 -8.660254
vt 7.660443 -6.427877
vt 9.396926 -3.420204
s 1
usemtl Shader_Graphs_HealCircle
f 3/1/1 2/2/1 1/3/1
f 4/4/1 2/2/1 3/1/1
f 5/5/1 2/2/1 4/4/1
f 6/6/1 2/2/1 5/5/1
f 7/7/1 2/2/1 6/6/1
f 8/8/1 2/2/1 7/7/1
f 9/9/1 2/2/1 8/8/1
f 10/10/1 2/2/1 9/9/1
f 11/11/1 2/2/1 10/10/1
f 12/12/1 2/2/1 11/11/1
f 13/13/1 2/2/1 12/12/1
f 14/14/1 2/2/1 13/13/1
f 15/15/1 2/2/1 14/14/1
f 16/16/1 2/2/1 15/15/1
f 17/17/1 2/2/1 16/16/1
f 18/18/1 2/2/1 17/17/1
f 19/19/1 2/2/1 18/18/1
f 1/3/1 2/2/1 19/19/1
